<?xml version="1.0" encoding="UTF-8" standalone="no"?>
<!-- Created with Inkscape (http://www.inkscape.org/) -->

<svg
   xmlns:dc="http://purl.org/dc/elements/1.1/"
   xmlns:cc="http://creativecommons.org/ns#"
   xmlns:rdf="http://www.w3.org/1999/02/22-rdf-syntax-ns#"
   xmlns:svg="http://www.w3.org/2000/svg"
   xmlns="http://www.w3.org/2000/svg"
   xmlns:sodipodi="http://sodipodi.sourceforge.net/DTD/sodipodi-0.dtd"
   xmlns:inkscape="http://www.inkscape.org/namespaces/inkscape"
   width="70mm"
   height="70mm"
   viewBox="0 0 70 70"
   version="1.1"
   id="svg8"
   inkscape:version="0.92.3 (2405546, 2018-03-11)"
   sodipodi:docname="icon.svg">
  <defs
     id="defs2" />
  <sodipodi:namedview
     id="base"
     pagecolor="#ffffff"
     bordercolor="#666666"
     borderopacity="1.0"
     inkscape:pageopacity="0.0"
     inkscape:pageshadow="2"
     inkscape:zoom="1.4"
     inkscape:cx="203.32136"
     inkscape:cy="130.12088"
     inkscape:document-units="mm"
     inkscape:current-layer="layer1"
     showgrid="false"
     fit-margin-top="0"
     fit-margin-left="0"
     fit-margin-right="0"
     fit-margin-bottom="0"
     inkscape:window-width="1366"
     inkscape:window-height="705"
     inkscape:window-x="1272"
     inkscape:window-y="433"
     inkscape:window-maximized="1"
     inkscape:pagecheckerboard="false" />
  <metadata
     id="metadata5">
    <rdf:RDF>
      <cc:Work
         rdf:about="">
        <dc:format>image/svg+xml</dc:format>
        <dc:type
           rdf:resource="http://purl.org/dc/dcmitype/StillImage" />
        <dc:title></dc:title>
      </cc:Work>
    </rdf:RDF>
  </metadata>
  <g
     inkscape:label="Camada 1"
     inkscape:groupmode="layer"
     id="layer1"
     transform="translate(-56.763355,20.398448)">
    <g
       id="g4616"
       transform="matrix(1.0082068,0,0,1.0082068,0.95273703,-0.58126557)">
      <g
         id="flowRoot4526-6-5"
         style="font-style:normal;font-variant:normal;font-weight:normal;font-stretch:normal;font-size:85.33333588px;line-height:1.25;font-family:'Harlow Solid Italic';-inkscape-font-specification:'Harlow Solid Italic, ';letter-spacing:0px;word-spacing:0px;fill:#781ad1;fill-opacity:1;stroke:none"
         transform="matrix(0.89186754,0,0,0.89186754,-133.13766,-160.40818)"
         aria-label="Startup">
        <path
           inkscape:connector-curvature="0"
           id="path4586"
           d="m 248.55013,187.01123 3.83333,4.83333 2.20834,2.66667 q 6.41667,7.91666 6.41667,16.75 0,8.58333 -5.66667,15.04167 -7.75,8.875 -20.29167,8.875 -9.70833,0 -15.91667,-6 -6.20833,-5.95834 -6.20833,-15.29167 0,-11.41667 9.66667,-19.04167 5.125,-4.04167 9.45833,-4.04167 2.25,0 3.66667,1.29167 1.41666,1.29167 1.41666,3.33333 0,2.75 -3.25,4.75 l -3.33333,2.04167 q -2.875,1.79167 -4.79167,5 -1.91666,3.20833 -1.91666,6.33334 0,4.95833 3.33333,8.16666 3.375,3.25 8.54167,3.25 5.70833,0 9.91666,-4.29166 4.20834,-4.25 4.20834,-10.04167 0,-3.66667 -1.70834,-6.66667 -1.70833,-3 -7.375,-9.29167 -3.95833,-4.375 -5.66666,-7.66666 h -11.25 q -5.75,0 -5.75,-3.95834 0,-2.875 2,-4.41666 2.04166,-1.58334 5.70833,-1.58334 h 7.125 q 0.83333,-8.25 7.54167,-13.625 6.70833,-5.41666 16.08333,-5.41666 7.04167,0 11.45834,3.875 4.45833,3.875 4.45833,10.04166 0,8.20834 -7.04167,12.58334 -4,2.5 -12.70833,2.5 z m -5,-9.95834 h 10 q 8.45834,0 8.45834,-4.91666 0,-1.91667 -1.75,-3.08334 -1.70834,-1.16666 -4.58334,-1.16666 -4.5,0 -8.20833,2.79166 -3.66667,2.79167 -3.91667,6.375 z" />
      </g>
      <g
         id="flowRoot4526"
         style="font-style:normal;font-variant:normal;font-weight:normal;font-stretch:normal;font-size:64px;line-height:1.25;font-family:'Harlow Solid Italic';-inkscape-font-specification:'Harlow Solid Italic, ';letter-spacing:0px;word-spacing:0px;fill:#5bcaa7;fill-opacity:1;stroke:none"
         transform="matrix(0.25721691,0,0,0.25721691,6.2950552,-7.1385075)"
         aria-label="fest">
        <path
           style="stroke-width:3.1486845"
           inkscape:connector-curvature="0"
           id="path4601"
           d="m 405.2119,76.736759 h 13.57871 q 12.49633,0 12.49633,8.757269 0,6.00218 -4.42783,9.347659 -4.32944,3.34548 -12.20115,3.34548 H 396.55302 L 352.37305,207.11196 q -5.51021,13.4803 -15.34984,13.4803 -4.32944,0 -7.28133,-2.6567 -2.95189,-2.6567 -2.95189,-6.59256 0,-2.8535 2.5583,-9.34766 L 371.56034,98.187167 h -6.69096 q -12.49633,0 -12.49633,-8.560481 0,-6.100581 4.32944,-9.44606 4.42784,-3.443867 12.29954,-3.443867 h 11.21719 l 12.49634,-30.798068 q 6.29737,-15.34984 15.05465,-21.74561 8.85567,-6.494158 23.61513,-6.494158 h 11.2172 q 12.59472,0 12.59472,8.658881 0,6.198969 -4.42783,9.642849 -4.42784,3.443867 -12.29955,3.443867 h -2.95189 q -8.26529,0 -13.08672,3.34548 -4.72302,3.345479 -7.9701,11.315582 z" />
      </g>
    </g>
  </g>
</svg>
