<?xml version="1.0" encoding="UTF-8" standalone="no"?>
<!-- Created with Inkscape (http://www.inkscape.org/) -->

<svg
   xmlns:dc="http://purl.org/dc/elements/1.1/"
   xmlns:cc="http://creativecommons.org/ns#"
   xmlns:rdf="http://www.w3.org/1999/02/22-rdf-syntax-ns#"
   xmlns:svg="http://www.w3.org/2000/svg"
   xmlns="http://www.w3.org/2000/svg"
   xmlns:sodipodi="http://sodipodi.sourceforge.net/DTD/sodipodi-0.dtd"
   xmlns:inkscape="http://www.inkscape.org/namespaces/inkscape"
   width="68.29557mm"
   height="29.359352mm"
   viewBox="0 0 68.29557 29.359352"
   version="1.1"
   id="svg8"
   inkscape:version="0.92.3 (2405546, 2018-03-11)"
   sodipodi:docname="logo.svg">
  <defs
     id="defs2" />
  <sodipodi:namedview
     id="base"
     pagecolor="#ffffff"
     bordercolor="#666666"
     borderopacity="1.0"
     inkscape:pageopacity="0.0"
     inkscape:pageshadow="2"
     inkscape:zoom="2.8"
     inkscape:cx="133.28235"
     inkscape:cy="32.466712"
     inkscape:document-units="mm"
     inkscape:current-layer="layer1"
     showgrid="false"
     fit-margin-top="0"
     fit-margin-left="0"
     fit-margin-right="0"
     fit-margin-bottom="0"
     inkscape:window-width="1366"
     inkscape:window-height="705"
     inkscape:window-x="1272"
     inkscape:window-y="433"
     inkscape:window-maximized="1"
     inkscape:pagecheckerboard="false" />
  <metadata
     id="metadata5">
    <rdf:RDF>
      <cc:Work
         rdf:about="">
        <dc:format>image/svg+xml</dc:format>
        <dc:type
           rdf:resource="http://purl.org/dc/dcmitype/StillImage" />
        <dc:title></dc:title>
      </cc:Work>
    </rdf:RDF>
  </metadata>
  <g
     inkscape:label="Camada 1"
     inkscape:groupmode="layer"
     id="layer1"
     transform="translate(-56.763355,-20.242199)">
    <g
       aria-label="Startup"
       transform="matrix(0.26458333,0,0,0.26458333,0.42691524,-21.564938)"
       style="font-style:normal;font-variant:normal;font-weight:normal;font-stretch:normal;font-size:85.33333588px;line-height:1.25;font-family:'Harlow Solid Italic';-inkscape-font-specification:'Harlow Solid Italic, ';letter-spacing:0px;word-spacing:0px;fill:#781ad1;fill-opacity:1;stroke:none"
       id="flowRoot4526-6-5">
      <path
         d="m 248.55013,187.01123 3.83333,4.83333 2.20834,2.66667 q 6.41667,7.91666 6.41667,16.75 0,8.58333 -5.66667,15.04167 -7.75,8.875 -20.29167,8.875 -9.70833,0 -15.91667,-6 -6.20833,-5.95834 -6.20833,-15.29167 0,-11.41667 9.66667,-19.04167 5.125,-4.04167 9.45833,-4.04167 2.25,0 3.66667,1.29167 1.41666,1.29167 1.41666,3.33333 0,2.75 -3.25,4.75 l -3.33333,2.04167 q -2.875,1.79167 -4.79167,5 -1.91666,3.20833 -1.91666,6.33334 0,4.95833 3.33333,8.16666 3.375,3.25 8.54167,3.25 5.70833,0 9.91666,-4.29166 4.20834,-4.25 4.20834,-10.04167 0,-3.66667 -1.70834,-6.66667 -1.70833,-3 -7.375,-9.29167 -3.95833,-4.375 -5.66666,-7.66666 h -11.25 q -5.75,0 -5.75,-3.95834 0,-2.875 2,-4.41666 2.04166,-1.58334 5.70833,-1.58334 h 7.125 q 0.83333,-8.25 7.54167,-13.625 6.70833,-5.41666 16.08333,-5.41666 7.04167,0 11.45834,3.875 4.45833,3.875 4.45833,10.04166 0,8.20834 -7.04167,12.58334 -4,2.5 -12.70833,2.5 z m -5,-9.95834 h 10 q 8.45834,0 8.45834,-4.91666 0,-1.91667 -1.75,-3.08334 -1.70834,-1.16666 -4.58334,-1.16666 -4.5,0 -8.20833,2.79166 -3.66667,2.79167 -3.91667,6.375 z"
         id="path4586"
         inkscape:connector-curvature="0" />
      <path
         d="m 289.8418,183.59456 h 1.29166 q 5.29167,0 5.29167,3.70833 0,2.54167 -1.875,3.95834 -1.875,1.41666 -5.16667,1.41666 h -3.04166 l -5.58334,13.70834 h 4.66667 q 5.29167,0 5.29167,3.70833 0,2.54167 -1.875,3.95834 -1.83334,1.41666 -5.16667,1.41666 h -7.45833 q -3.16667,0 -5.04167,-1.45833 -1.83333,-1.45834 -1.83333,-3.95834 0,-1.54166 0.75,-3.41666 l 0.79166,-1.83334 4.91667,-12.125 h -0.625 q -4.66667,0 -4.66667,-3.625 0,-2.58333 1.83334,-4 1.875,-1.45833 5.20833,-1.45833 h 1.91667 l 2.20833,-5.45833 0.45833,-1.125 q 1.95834,-4.625 6.16667,-4.625 1.70833,0 2.91667,1.16666 1.25,1.125 1.25,2.75 0,1.58334 -1.08334,4 z"
         id="path4588"
         inkscape:connector-curvature="0" />
      <path
         d="m 323.13347,206.38623 h 4.58333 q 5.25,0 5.25,3.66666 0,2.54167 -1.875,4.00001 -1.875,1.41666 -5.16666,1.41666 h -5.33334 q -3.58333,0 -4.875,-2.79167 -3.125,2.79167 -6.04166,2.79167 h -4.75 q -4.58334,0 -7.41667,-3.25 -2.79167,-3.29167 -2.79167,-8.58333 0,-8 5.5,-14.29167 5.54167,-6.33333 12.5,-6.33333 5.33334,0 7.79167,3.70833 2.08333,-3.125 5.45833,-3.125 1.83334,0 3.04167,1.16667 1.25,1.16666 1.25,2.875 0,1.16666 -0.66667,2.79166 l -0.45833,1.125 z m -15.125,0.20833 h 1.04167 q 3.41666,0 4.54166,-2.79167 l 2.91667,-7.20833 q 0.58333,-1.41667 0.58333,-2.375 0,-1.125 -1.125,-1.95833 -1.08333,-0.83334 -2.625,-0.83334 -3.04166,0 -5.91666,3.54167 -2.875,3.54167 -2.875,7.33333 0,4.29167 3.45833,4.29167 z"
         id="path4590"
         inkscape:connector-curvature="0" />
      <path
         d="m 344.92513,192.71956 -1.41667,3.5 q -1.91666,4.66667 -5,4.66667 -1.875,0 -3.125,-1.125 -1.25,-1.125 -1.25,-2.79167 0,-0.95833 0.91667,-3.25 l 4.70833,-11.625 q 1.70834,-4.20833 4.83334,-4.20833 3.08333,0 3.79166,2.91666 l 0.33334,1.29167 q 0.25,1 0.75,1.25 0.5,0.25 2.45833,0.25 h 9.75 q 5.45833,0 5.45833,3.83333 0,5.29167 -6.91666,5.29167 l -0.45834,0.41667 q -6.625,6.33333 -6.625,9.79166 0,3.45834 3.83334,3.45834 h 5.25 q 5.29166,0 5.29166,3.66666 0,2.58334 -1.875,4.00001 -1.83333,1.41666 -5.16666,1.41666 h -8.16667 q -4.16667,0 -6.83333,-2.875 -2.625,-2.875 -2.625,-7.45833 0,-2.91667 1.41666,-5.66667 1.41667,-2.75 5,-6.75 z"
         id="path4592"
         inkscape:connector-curvature="0" />
      <path
         d="m 390.17514,183.59456 h 1.29167 q 5.29166,0 5.29166,3.70833 0,2.54167 -1.875,3.95834 -1.875,1.41666 -5.16666,1.41666 h -3.04167 l -5.58333,13.70834 h 4.66666 q 5.29167,0 5.29167,3.70833 0,2.54167 -1.875,3.95834 -1.83333,1.41666 -5.16667,1.41666 h -7.45833 q -3.16667,0 -5.04167,-1.45833 -1.83333,-1.45834 -1.83333,-3.95834 0,-1.54166 0.75,-3.41666 l 0.79167,-1.83334 4.91666,-12.125 h -0.625 q -4.66666,0 -4.66666,-3.625 0,-2.58333 1.83333,-4 1.875,-1.45833 5.20833,-1.45833 h 1.91667 l 2.20833,-5.45833 0.45834,-1.125 q 1.95833,-4.625 6.16666,-4.625 1.70834,0 2.91667,1.16666 1.25,1.125 1.25,2.75 0,1.58334 -1.08333,4 z"
         id="path4594"
         inkscape:connector-curvature="0" />
      <path
         d="m 424.38346,206.38623 h 4.83334 q 2.875,0 4.08333,0.875 1.20833,0.83333 1.20833,2.79166 0,2.54167 -1.875,4.00001 -1.83333,1.41666 -5.16666,1.41666 h -7.45834 q -3.5,0 -4.66666,-2.70833 -2.29167,2.70833 -5.75,2.70833 h -6.08334 q -3.66666,0 -6.08333,-2.29167 -2.41667,-2.29166 -2.41667,-5.79166 0,-2 1.08334,-4.66667 l 5.66666,-13.91667 q 2.375,-5.79166 6.5,-5.79166 1.79167,0 3.04167,1.16666 1.25,1.125 1.25,2.79167 0,1.25 -0.66667,2.875 l -0.45833,1.125 -4.375,10.70833 -0.45833,1.25 q -0.375,1.08334 -0.41667,1.625 -0.0833,1.875 2.41667,1.875 5.16666,0 6.875,-4.16666 l 5.20833,-12.83334 q 2.33333,-5.83333 6.58333,-5.83333 1.75,0 3,1.16667 1.25,1.16666 1.25,2.79166 0,1.29167 -1.08333,4 z"
         id="path4596"
         inkscape:connector-curvature="0" />
      <path
         d="m 445.05013,212.21956 -10.875,26.75 q -2.25,5.54167 -6.58333,5.54167 -1.66667,0 -2.83334,-1.125 -1.20833,-1.08333 -1.20833,-2.625 0,-1.29167 1.04167,-3.91667 l 20.08333,-49.5 q 1.54167,-3.75 5.33333,-3.75 2.625,0 4.16667,2.5 2.91667,-3.08333 7.125,-3.08333 4.375,0 7.04167,3.33333 2.70833,3.29167 2.70833,8.70833 0,10.25 -6.375,16.70834 -2.08333,2.125 -4.29167,2.91667 -2.20833,0.79166 -6.16666,0.79166 -4.25,0 -5.875,-0.58333 -1.58334,-0.58333 -3.29167,-2.66667 z m 3.41667,-8.5 q 1.04166,1.83333 1.95833,2.375 0.95833,0.54167 3,0.54167 2.95833,0 4.625,-2.20834 3.375,-4.45833 3.375,-9.16666 0,-4.04167 -3.83333,-4.04167 -4.20834,0 -6.04167,4.875 -0.20833,0.54167 -0.33333,0.91667 z"
         id="path4598"
         inkscape:connector-curvature="0" />
    </g>
    <g
       aria-label="fest"
       transform="matrix(0.2413456,0,0,0.2413456,40.164943,-3.4484322)"
       style="font-style:normal;font-variant:normal;font-weight:normal;font-stretch:normal;font-size:64px;line-height:1.25;font-family:'Harlow Solid Italic';-inkscape-font-specification:'Harlow Solid Italic, ';letter-spacing:0px;word-spacing:0px;fill:#5bcaa7;fill-opacity:1;stroke:none"
       id="flowRoot4526">
      <path
         d="m 228.2793,174.1217 h 4.3125 q 3.96875,0 3.96875,2.78125 0,1.90625 -1.40625,2.96875 -1.375,1.0625 -3.875,1.0625 h -5.75 l -14.03125,34.59375 q -1.75,4.28125 -4.875,4.28125 -1.375,0 -2.3125,-0.84375 -0.9375,-0.84375 -0.9375,-2.09375 0,-0.90625 0.8125,-2.96875 L 217.5918,180.9342 h -2.125 q -3.96875,0 -3.96875,-2.71875 0,-1.9375 1.375,-3 1.40625,-1.09375 3.90625,-1.09375 h 3.5625 l 3.96875,-9.78125 q 2,-4.875 4.78125,-6.90625 2.8125,-2.0625 7.5,-2.0625 h 3.5625 q 4,0 4,2.75 0,1.96875 -1.40625,3.0625 -1.40625,1.09375 -3.90625,1.09375 h -0.9375 q -2.625,0 -4.15625,1.0625 -1.5,1.0625 -2.53125,3.59375 z"
         id="path4601"
         inkscape:connector-curvature="0" />
      <path
         d="m 240.0293,188.8717 q 0,2.34375 3.53125,2.34375 h 9.28125 q 3.9375,0 3.9375,2.78125 0,1.90625 -1.40625,2.96875 -1.375,1.0625 -3.875,1.0625 h -8.84375 q -4.9375,0 -7.53125,-2.4375 -2.5625,-2.4375 -2.5625,-7.125 0,-6.03125 4.0625,-10.40625 4.09375,-4.375 9.71875,-4.375 4.09375,0 6.5625,2.15625 2.5,2.125 2.5,5.625 0,4.21875 -3.4375,6.25 -1.90625,1.15625 -5.6875,1.15625 z m 1.5,-5.6875 h 3.4375 q 3.34375,0 3.25,-1.46875 -0.0937,-1.65625 -2.15625,-1.65625 -2.875,0 -4.53125,3.125 z"
         id="path4603"
         inkscape:connector-curvature="0" />
      <path
         d="m 268.43555,182.65295 -0.59375,1.4375 q -1.375,3.09375 -3.90625,3.09375 -1.28125,0 -2.3125,-0.875 -1,-0.90625 -1,-2.0625 0,-1.09375 0.90625,-2.90625 l 4.15625,-8.4375 q 1.53125,-3.03125 3.8125,-3.03125 1.21875,0 2.09375,0.8125 0.875,0.78125 0.875,1.875 0,0.28125 -0.1875,1.21875 -0.125,0.6875 -0.125,1.21875 0,1.96875 1.46875,4.03125 l 1.78125,2.46875 q 2.71875,3.78125 2.71875,7.3125 0,3.9375 -2.9375,6.59375 -2.9375,2.625 -7.3125,2.625 h -6.53125 q -3.96875,0 -3.96875,-2.75 0,-1.90625 1.40625,-2.96875 1.40625,-1.09375 3.875,-1.09375 h 3.625 q 4.34375,0 4.34375,-3.15625 0,-1.15625 -0.8125,-2.71875 z"
         id="path4605"
         inkscape:connector-curvature="0" />
      <path
         d="m 296.0293,174.1217 h 0.96875 q 3.96875,0 3.96875,2.78125 0,1.90625 -1.40625,2.96875 -1.40625,1.0625 -3.875,1.0625 h -2.28125 l -4.1875,10.28125 h 3.5 q 3.96875,0 3.96875,2.78125 0,1.90625 -1.40625,2.96875 -1.375,1.0625 -3.875,1.0625 h -5.59375 q -2.375,0 -3.78125,-1.09375 -1.375,-1.09375 -1.375,-2.96875 0,-1.15625 0.5625,-2.5625 l 0.59375,-1.375 3.6875,-9.09375 h -0.46875 q -3.5,0 -3.5,-2.71875 0,-1.9375 1.375,-3 1.40625,-1.09375 3.90625,-1.09375 h 1.4375 l 1.65625,-4.09375 0.34375,-0.84375 q 1.46875,-3.46875 4.625,-3.46875 1.28125,0 2.1875,0.875 0.9375,0.84375 0.9375,2.0625 0,1.1875 -0.8125,3 z"
         id="path4607"
         inkscape:connector-curvature="0" />
    </g>
  </g>
</svg>
